<svg height='100px' width='100px'  fill="#cbd5e0" xmlns="http://www.w3.org/2000/svg" xmlns:xlink="http://www.w3.org/1999/xlink" version="1.1" x="0px" y="0px" viewBox="0 0 100 100" enable-background="new 0 0 100 100" xml:space="preserve"><path fill="#cbd5e0" d="M81.646,50.277c0.742-1.75,2.188-3.224,4.121-4.18l5.026-2.49H69.3l-0.288,0.152  c-1.469,0.777-2.711,1.83-3.664,3.077h-4.426V17.783c0.176-0.085,0.35-0.174,0.528-0.255c2.598-0.897,4.338-3.334,4.338-6.086  C65.788,7.89,62.898,5,59.346,5c-0.308,0-0.63,0.027-0.988,0.083l-1.111,0.172v3.427c-0.247,1.855-1.662,3.609-3.995,4.946  c-7.278,3.717-13.372,8.953-17.625,15.144c-0.406,0.591-0.791,1.191-1.161,1.797c-0.026,0-0.053-0.004-0.08-0.004  c-0.923,0-1.771,0.541-2.162,1.377l-0.654,1.403c-0.378,0.813-0.258,1.732,0.235,2.411c-1.501,3.563-2.438,7.291-2.774,11.082h-2.57  v-3.902L9.205,50.277L26.46,57.62v-3.901h2.619c0.375,3.6,1.294,7.141,2.723,10.529c-0.491,0.68-0.611,1.598-0.233,2.408  l0.654,1.404c0.39,0.836,1.239,1.377,2.163,1.377c0.026,0,0.052-0.004,0.078-0.004c0.371,0.604,0.756,1.205,1.162,1.797  c4.253,6.189,10.347,11.426,17.625,15.144c2.333,1.338,3.748,3.091,3.995,4.946v3.428l1.113,0.172c0.354,0.055,0.68,0.08,0.986,0.08  c3.553,0,6.441-2.891,6.441-6.441c0-2.752-1.74-5.188-4.338-6.086c-0.18-0.082-0.354-0.17-0.527-0.254v-28.5h4.428  c0.95,1.247,2.192,2.299,3.664,3.076l0.286,0.152h21.495l-5.027-2.49C83.836,53.501,82.389,52.027,81.646,50.277z M54.473,15.953  l0.053-0.029c3.121-1.781,5.018-4.27,5.336-7.009l0.011-1.252c1.854,0.257,3.29,1.854,3.29,3.78c0,1.643-1.049,3.097-2.609,3.617  l-0.121,0.048c-5.443,2.447-10.034,6.909-13.353,12.605c-2.158,1.713-4.071,3.687-5.722,5.855L36.94,31.51  C40.889,25.224,46.865,19.832,54.473,15.953z M46.252,40.191l0.655-1.403c0.475-1.021,0.163-2.208-0.684-2.877  c2.424-7.138,6.655-13.066,12.073-16.633v27.559H44.05c0.127-1.827,0.365-3.619,0.703-5.364  C45.404,41.283,45.958,40.822,46.252,40.191z M43.865,34.738l-1.052-0.49c0.708-0.91,1.463-1.783,2.269-2.612  C44.638,32.642,44.233,33.679,43.865,34.738z M34.501,33.271l9.922,4.626l-0.45,0.965l-9.923-4.627L34.501,33.271z M38.692,46.837  h-1.863c0.154-0.668,0.327-1.33,0.522-1.984l4.215-4.215l0.62,0.289c-0.185,0.951-0.343,1.913-0.47,2.888L38.692,46.837z   M41.459,46.299c-0.014,0.179-0.022,0.358-0.034,0.538h-0.504L41.459,46.299z M38.615,41.361c0.25-0.584,0.52-1.159,0.803-1.726  l0.629,0.293L38.615,41.361z M34.05,37.133l3.944,1.839c-1.238,2.483-2.18,5.123-2.786,7.865h-3.547  C31.975,43.489,32.787,40.235,34.05,37.133z M23.834,53.648l-7.921-3.373l7.921-3.371V53.648z M35.327,62.271l-1.282,0.599  c-1.194-2.931-1.984-5.999-2.333-9.151h2.69c-0.003,0.188-0.008,0.377-0.008,0.565C34.395,57.02,34.718,59.695,35.327,62.271z   M35.984,55.1c-0.007-0.271-0.014-0.543-0.014-0.814c0-0.188,0.005-0.379,0.009-0.564h1.386L35.984,55.1z M39.594,53.719h1.869  c0.034,0.447,0.073,0.893,0.12,1.336l-5.092,5.092c-0.184-1.035-0.32-2.082-0.406-3.143c0.162-0.023,0.318-0.095,0.442-0.22  L39.594,53.719z M41.833,57.033c0.103,0.688,0.225,1.365,0.356,2.039L37.7,61.166L41.833,57.033z M44.091,53.719h14.204v27.004  c-5.418-3.566-9.647-9.496-12.073-16.634c0.345-0.271,0.609-0.631,0.763-1.054c0.218-0.598,0.189-1.246-0.08-1.823l-0.654-1.403  c-0.294-0.629-0.848-1.092-1.499-1.281C44.449,56.959,44.225,55.354,44.091,53.719z M34.501,66.73l-0.45-0.965l9.922-4.627  l0.45,0.965L34.501,66.73z M36.938,68.492l0.416-0.193c0.445,1.004,0.935,1.982,1.474,2.934  C38.153,70.34,37.524,69.425,36.938,68.492z M38.782,67.632l2.492-1.163L39.2,68.544C39.056,68.243,38.917,67.938,38.782,67.632z   M39.953,70.02l4.13-4.129c0.296,0.805,0.614,1.596,0.953,2.371L41.198,72.1C40.758,71.423,40.341,70.73,39.953,70.02z   M42.104,73.422l3.638-3.637c0.358,0.732,0.735,1.447,1.132,2.146l-3.333,3.332C43.039,74.668,42.561,74.053,42.104,73.422z   M44.614,76.466l2.11-2.11v-0.047l0.982-0.981c0.428,0.683,0.875,1.344,1.339,1.985L46.258,78.1  C45.689,77.574,45.142,77.029,44.614,76.466z M47.445,79.141l2.561-2.561c0.494,0.62,1.008,1.215,1.536,1.789l-2.216,2.216  C48.68,80.126,48.051,79.645,47.445,79.141z M52.759,82.707l-0.006-0.003c-0.718-0.382-1.415-0.791-2.094-1.222l1.979-1.979  c0.563,0.554,1.146,1.08,1.744,1.579L52.759,82.707z M54.525,84.077l-0.053-0.029c-0.185-0.093-0.361-0.19-0.541-0.286l1.701-1.701  c0.646,0.479,1.309,0.926,1.985,1.34l-1.632,1.631C55.535,84.695,55.049,84.375,54.525,84.077z M62.454,86.348  c0.448,0.629,0.707,1.396,0.707,2.211c0,0.146-0.011,0.291-0.027,0.435l-3.263,3.263v-1.02l-0.01-0.15  c-0.068-0.587-0.213-1.163-0.424-1.725L62.454,86.348z M61.292,85.281l-2.597,2.597c-0.404-0.642-0.905-1.252-1.5-1.825l1.845-1.844  c0.458,0.241,0.919,0.473,1.39,0.686l0.123,0.047C60.814,85.029,61.061,85.145,61.292,85.281z M25.147,51.091v-1.628h38.744  c-0.05,0.134-0.099,0.269-0.144,0.406l-0.134,0.408l0.134,0.409c0.044,0.137,0.094,0.271,0.144,0.405H25.147z M74.023,46.234h2.309  c-0.827,0.945-1.477,2.045-1.907,3.255h-0.479h-2.418C72.082,48.205,72.939,47.092,74.023,46.234z M67.378,48.505  c0.672-0.902,1.548-1.676,2.585-2.271h1.74c-0.827,0.945-1.477,2.045-1.907,3.255h-0.438H66.87  C67.018,49.148,67.189,48.821,67.378,48.505z M69.964,54.32c-1.038-0.594-1.914-1.368-2.585-2.271  c-0.188-0.314-0.359-0.645-0.507-0.982h2.487h0.438c0.432,1.209,1.08,2.311,1.907,3.254H69.964z M74.023,54.32  c-1.084-0.857-1.941-1.971-2.496-3.254h2.418h0.479c0.432,1.209,1.08,2.311,1.907,3.254H74.023z M78.645,54.32  c-1.084-0.857-1.941-1.969-2.496-3.254h2.895c0.432,1.209,1.08,2.311,1.907,3.254H78.645z M79.042,49.489h-2.894  c0.555-1.285,1.412-2.397,2.496-3.255h2.305C80.121,47.179,79.471,48.279,79.042,49.489z"></path></svg>