<svg height='100px' width='100px'  fill="#FFFFFF" xmlns="http://www.w3.org/2000/svg" data-name="Layer 1" viewBox="0 0 100 100" x="0px" y="0px"><title>corona1</title><path d="M84.09645,64.05857a.11045.11045,0,0,0-.13389.06159c-1.05776,2.27528-15.42,4.05784-33.865,4.05874-18.42185-.0009-32.77783-1.78167-33.85076-4.05517a.11128.11128,0,0,0-.13389-.0607.11386.11386,0,0,0-.083.1214c.04284.4347.05266.87834.06248,1.30679.00893.39722.01875.80871.05356,1.20147,0,2.78943,16.81335,4.45773,33.95162,4.45862,17.13827-.00089,33.95162-1.66919,33.95162-4.44881.03481-.399.04731-.80692.0598-1.20146.01339-.43292.02678-.881.07052-1.32107A.113.113,0,0,0,84.09645,64.05857Z"></path><circle cx="28.82133" cy="30.46026" r="1.33558"></circle><circle cx="11.04083" cy="31.09831" r="1.33558"></circle><circle cx="50" cy="30.18427" r="1.33558"></circle><polygon points="50 59.089 48.205 55.476 50 51.864 51.795 55.476 50 59.089"></polygon><circle cx="71.17867" cy="30.46026" r="1.33558"></circle><circle cx="88.95917" cy="31.09831" r="1.33558"></circle><path d="M17.142,63.68006c.99481,1.46624,13.00079,3.49786,32.95544,3.49884,12.32526-.00061,21.61383-.77539,27.1529-1.70862A20.98249,20.98249,0,0,0,82.795,63.93775c.11621-.08075,5.2417-27.41645,5.77057-30.62964A2.189,2.189,0,0,1,88.313,33.242c-1.5791,2.6513-8.854,15.22644-10.92926,19.32586-.3797-.92724-4.34638-16.43341-5.63519-19.94012A2.08083,2.08083,0,0,1,70.4043,32.564L60.67,53.48181l-10.07489-21.138a2.01048,2.01048,0,0,1-1.19018,0L39.33,53.48181,29.5957,32.564a2.08084,2.08084,0,0,1-1.34424.06366C26.96265,36.1344,22.996,51.64057,22.61627,52.56781,20.541,48.46845,13.26611,35.89331,11.687,33.242a2.20653,2.20653,0,0,1-.25262.06616C11.96326,36.5213,16.97455,63.33741,17.142,63.68006Zm30.244-8.61078,1.79541-3.61261a.9141.9141,0,0,1,1.63708,0L52.614,55.06928a.91426.91426,0,0,1,0,.8136l-1.79547,3.61267a.9141.9141,0,0,1-1.63708,0l-1.79541-3.61267A.91387.91387,0,0,1,47.38605,55.06928Z"></path></svg>