<svg height='100px' width='100px'  fill="#FFFFFF" xmlns="http://www.w3.org/2000/svg" data-name="Layer 1" viewBox="0 0 100 100" x="0px" y="0px"><title>casco fantasy 2</title><path d="M18.259,56.7922c-2.17011-1.715-4.22015-3.33506-5.359-5.09652C11.032,48.807,9.67,44.125,11.093,40.67177a6.292,6.292,0,0,1,4.745-3.76018,7.225,7.225,0,0,1,2.84131-.06282l2.684-9.344C16.27544,26.64192,9.6199,26.815,5.78346,32.122-1.595,42.32864,4.18614,52.64177,12.057,58.88872c1.16446.92479,2.40107,1.82731,3.597,2.69981,4.39155,3.20336,8.53956,6.22952,8.7802,10.03036.13412,2.12557-.95772,4.25114-3.33894,6.49969-.03147.03-.0581.05713-.08134.08134a4.3319,4.3319,0,0,0,2.0021-.705c1.17027-.70981,3.8972-2.91963,3.93739-8.10331C26.997,63.69957,22.35467,60.02945,18.259,56.7922Z"></path><path d="M20.96371,76.78324c1.74532-1.80227,2.54554-3.47456,2.44268-5.09656a5.69494,5.69494,0,0,0-1.08584-2.83563A21.08976,21.08976,0,0,1,20.18742,75.49C19.94963,75.90881,20.78656,76.96617,20.96371,76.78324Z"></path><path d="M79.03644,76.78324c-1.74532-1.80227-2.54554-3.47456-2.44268-5.09656a5.69494,5.69494,0,0,1,1.08584-2.83563A21.08976,21.08976,0,0,0,79.81273,75.49C80.05052,75.90881,79.21359,76.96617,79.03644,76.78324Z"></path><path d="M24.88986,26.094l-2.2807.97619L19.494,37.91418,21.34224,42.134A32.44631,32.44631,0,0,1,24.88986,26.094Z"></path><path d="M81.741,56.7922c2.17011-1.715,4.22015-3.33506,5.359-5.09652,1.868-2.88864,3.23-7.57071,1.807-11.02391a6.292,6.292,0,0,0-4.745-3.76018,7.225,7.225,0,0,0-2.84131-.06282l-2.684-9.344c5.08793-.86288,11.74347-.68978,15.5799,4.61724C101.595,42.32864,95.81386,52.64177,87.943,58.88872c-1.16446.92479-2.40107,1.82731-3.597,2.69981-4.39155,3.20336-8.53956,6.22952-8.7802,10.03036-.13412,2.12557.95772,4.25114,3.33894,6.49969.03147.03.0581.05713.08134.08134a4.3319,4.3319,0,0,1-2.0021-.705c-1.17027-.70981-3.8972-2.91963-3.93739-8.10331C73.003,63.69957,77.64533,60.02945,81.741,56.7922Z"></path><path d="M75.11014,26.094l2.2807.97619,3.11513,10.844L78.65776,42.134A32.44631,32.44631,0,0,0,75.11014,26.094Z"></path><path d="M18.26234,56.7922c-2.17011-1.715-4.22015-3.33506-5.359-5.09652-1.868-2.88864-3.23-7.57071-1.807-11.02391a6.292,6.292,0,0,1,4.745-3.76018,7.225,7.225,0,0,1,2.84131-.06282l2.684-9.344C16.27882,26.64192,9.62328,26.815,5.78684,32.122c-7.37849,10.20661-1.59732,20.51973,6.27358,26.76668,1.16446.92479,2.40107,1.82731,3.597,2.69981C20.049,64.79189,24.197,67.818,24.43762,71.61889c.13412,2.12557-.95772,4.25114-3.33894,6.49969-.03147.03-.0581.05713-.08134.08134a4.3319,4.3319,0,0,0,2.0021-.705c1.17027-.70981,3.8972-2.91963,3.93739-8.10331C27.00041,63.69957,22.35805,60.02945,18.26234,56.7922Z"></path><path d="M24.89324,26.094l-2.2807.97619-3.11513,10.844L21.34562,42.134A32.44631,32.44631,0,0,1,24.89324,26.094Z"></path><path d="M50.005,48.66855c1.82683-.79116,3.61589-5.71531,4.45837-8.57394a12.32316,12.32316,0,0,1-4.46321,1.49613,12.26949,12.26949,0,0,1-4.44045-1.48451C46.60165,43.4597,48.44494,47.94034,50.005,48.66855Z"></path><path d="M50.01042,5.95345h-.0207C49.54809,6.11656,20.03209,17.11644,22.45,44.167a141.78531,141.78531,0,0,1,.63991,15.28782c2.76064,2.626,4.97312,5.74158,4.94037,9.94454a11.03066,11.03066,0,0,1-4.44366,8.9979c3.36714,3.05345,14.51185,5.68977,18.53942,9.7174-.36507-4.47713-1.59357-20.08736-1.553-26.74695a6.3684,6.3684,0,0,0-2.83974-5.1585c-2.50807-1.85055-6.03391-2.509-7.75373-1.96869l-.55149.17431-.08764-.57134a20.11049,20.11049,0,0,0-1.29374-3.3922c-1.42931-3.28664-3.20772-7.377-2.494-9.87542.71611-2.50614,6.11525-1.256,14.26891.93641,2.106.5668,4.13064,1.11677,5.65479,1.41781-.66158-1.77786-1.10013-3.30843-1.20513-3.6867l-.32344-1.16688,1.04874.60426a18.02179,18.02179,0,0,0,4.43077,1.85739l.50174-24.99729a.07105.07105,0,0,1,.142,0l.50174,24.99741A17.99531,17.99531,0,0,0,55.0037,38.6808l1.02114-.5878-.29342,1.14171c-.09738.37772-.50561,1.9066-1.14479,3.68386,1.51659-.30383,3.51621-.84763,5.59191-1.40625,8.15366-2.19239,13.5528-3.44255,14.26891-.93641.71369,2.49839-1.06472,6.58878-2.494,9.87542a20.11049,20.11049,0,0,0-1.29374,3.3922l-.08764.57134-.55149-.17431c-1.71982-.54035-5.24565.11814-7.75373,1.96869a6.3684,6.3684,0,0,0-2.83974,5.1585c.04061,6.65959-1.18789,22.26982-1.553,26.74695,4.02757-4.02763,15.17228-6.664,18.53942-9.7174a11.03066,11.03066,0,0,1-4.44366-8.9979c-.03274-4.203,2.17974-7.31851,4.94037-9.94454A141.78531,141.78531,0,0,1,77.55016,44.167C79.96806,17.11644,50.45206,6.11656,50.01042,5.95345Z"></path><path d="M32.274,47.51747c.31381.26612-1.29749-2.92157-1.29749-2.92157,6.9541.28125,5.98767,1.0278,16.5746,2.78436a23.19224,23.19224,0,0,1-1.65954-3.38451c-1.60749-.26945-3.84019-.85689-6.327-1.52573-4.69659-1.26275-12.55635-3.37573-13.058-1.621-.61637,2.15559,1.15575,6.23145,2.44949,9.20725a30.87055,30.87055,0,0,1,1.2429,3.11234,11.74786,11.74786,0,0,1,8.12316,2.24274,7.24424,7.24424,0,0,1,3.24258,5.96225c-.04176,6.80515,1.35693,26.046,1.68012,29.98711,1.7847.463,2.90517,2.68589,2.90517,2.68589-.75908-4.9506,1.16973-40.69327,1.16973-40.69327S37.29847,51.93292,32.274,47.51747Z"></path><path d="M61.67806,55.4113a11.74786,11.74786,0,0,1,8.12316-2.24274,30.87054,30.87054,0,0,1,1.2429-3.11234c1.29374-2.9758,3.06586-7.05166,2.44949-9.20725-.50161-1.75468-8.36138.3583-13.058,1.621-2.44919.65867-4.64956,1.23733-6.25155,1.51229A21.4676,21.4676,0,0,1,52.536,47.366c10.4976-1.74657,9.552-2.48968,16.48769-2.77014,0,0-1.6113,3.18769-1.29749,2.92157-5.0245,4.41546-15.04573,5.83581-15.04573,5.83581s1.92881,35.74267,1.16973,40.69327c0,0,1.12046-2.22289,2.90517-2.68589.32319-3.94108,1.72188-23.182,1.68012-29.98711A7.24424,7.24424,0,0,1,61.67806,55.4113Z"></path></svg>