<svg height='100px' width='100px'  fill="#FFFFFF" xmlns="http://www.w3.org/2000/svg" xmlns:xlink="http://www.w3.org/1999/xlink" version="1.1" x="0px" y="0px" viewBox="0 0 2000 2000" enable-background="new 0 0 2000 2000" xml:space="preserve"><path d="M542.837,1411.164c-12.82,0-24.876,4.993-33.942,14.059c-18.714,18.715-18.714,49.167,0.002,67.883  c9.066,9.065,21.12,14.058,33.94,14.058c12.821,0,24.875-4.993,33.942-14.059c18.713-18.716,18.713-49.167-0.001-67.882  C567.713,1416.157,555.659,1411.164,542.837,1411.164z M555.565,1471.892c-3.399,3.4-7.92,5.272-12.729,5.272  c-4.808,0-9.328-1.873-12.729-5.271c-7.018-7.018-7.018-18.438,0-25.456c3.4-3.4,7.921-5.272,12.729-5.272  c4.809,0,9.329,1.872,12.729,5.271C562.583,1453.454,562.583,1464.874,555.565,1471.892z M1460.139,1368.758l-140.814-140.814  l82.915-82.915c1.07-0.061,2.587-0.11,4.693-0.11c8.159,0,19.611,0.719,30.687,1.415c10.22,0.642,19.873,1.248,26.488,1.248  c5.84,0,16.712,0,20.955-10.245c2.398-5.792,1.028-12.456-3.492-16.976l-27.267-27.268c-2.681-2.681-6.732-6.731-47.055-15.726  c-8.966-2-39.371-8.525-54.241-8.525c-4.888,0-11.105,0.607-15.839,5.339l-65.353,65.354l-139.534-139.534l354.413-354.415  c1.535-1.534,2.717-3.382,3.469-5.417l63.701-172.77c2.024-5.491,0.671-11.657-3.468-15.795c-4.136-4.137-10.302-5.492-15.795-3.467  l-172.771,63.7c-2.035,0.75-3.884,1.933-5.417,3.467L1002,869.719L643.585,511.305c-1.533-1.534-3.381-2.717-5.416-3.467  l-172.77-63.701c-5.496-2.026-11.659-0.671-15.797,3.467c-4.138,4.138-5.491,10.305-3.467,15.795l63.7,172.771  c0.751,2.035,1.934,3.884,3.468,5.417l358.414,358.414l-143.535,143.534l-65.353-65.352c-4.731-4.733-10.95-5.34-15.84-5.34  c-14.868,0-45.274,6.525-54.239,8.524c-40.322,8.995-44.374,13.045-47.054,15.726l-27.268,27.267  c-4.52,4.521-5.891,11.184-3.491,16.976c4.243,10.245,15.115,10.245,20.956,10.245c6.613,0,16.265-0.606,26.482-1.248  c11.077-0.696,22.53-1.415,30.691-1.415c2.105,0,3.622,0.049,4.692,0.11l82.915,82.915L539.86,1372.757  c-25.55-0.715-49.701,8.914-67.691,26.905c-35.888,35.887-35.888,94.28,0,130.169c17.385,17.385,40.499,26.959,65.084,26.959  c24.587,0,47.699-9.574,65.084-26.958c18.063-18.061,27.654-42.396,26.91-67.696l140.811-140.811l82.947,82.947  c0.43,7.217-0.656,24.505-1.338,35.348c-1.896,30.19-2.346,37.363,3.632,43.73c2.913,3.102,7.01,4.882,11.24,4.883h0.003  c4.15,0,8.092-1.656,11.098-4.662l27.268-27.268c3.141-3.141,5.521-7.575,9.818-23.1c2.536-9.167,5.282-20.674,7.731-32.401  c1.833-8.779,4.31-21.573,5.697-32.671c1.815-14.517,1.644-22.982-4.335-28.961l-65.354-65.353L1002,1130.283l139.535,139.535  l-65.353,65.353c-5.979,5.979-6.152,14.444-4.337,28.962c1.388,11.098,3.864,23.892,5.698,32.671  c2.448,11.727,5.194,23.233,7.731,32.401c4.296,15.524,6.677,19.958,9.818,23.099l27.266,27.267  c3.007,3.006,6.947,4.662,11.099,4.662c4.231,0,8.328-1.779,11.242-4.882c5.98-6.368,5.53-13.542,3.633-43.738  c-0.682-10.84-1.767-28.124-1.338-35.339l82.947-82.947l140.811,140.811c-0.744,25.3,8.848,49.636,26.909,67.696  c17.382,17.383,40.494,26.957,65.081,26.958c0.004,0,0.009,0,0.009,0c24.58,0,47.694-9.575,65.079-26.959  c35.887-35.887,35.887-94.281,0-130.168C1509.84,1377.672,1485.693,1368.034,1460.139,1368.758z M1375.299,538.845l139.168-51.311  l-51.312,139.167l-352.086,352.087l-56.656-56.656l256.209-256.21c5.858-5.858,5.858-15.355,0-21.213  c-5.857-5.858-15.355-5.858-21.213,0L1033.2,900.919l-9.987-9.988L1375.299,538.845z M485.534,483.534L624.7,534.846  l625.903,625.902l-56.655,56.656L663.921,687.379c-5.856-5.858-15.354-5.858-21.212,0c-5.858,5.858-5.858,15.355,0,21.213  l530.026,530.025l-9.988,9.988L536.845,622.702L485.534,483.534z M892.93,1021.213l9.988,9.988l-143.534,143.534l-9.987-9.988  L892.93,1021.213z M603.216,1445.74c-3.215,3.214-4.798,7.714-4.305,12.233c2.054,18.828-4.429,37.288-17.786,50.645  c-11.719,11.718-27.299,18.172-43.872,18.172c-16.571,0-32.151-6.454-43.871-18.172c-24.19-24.191-24.19-63.553,0-87.743  c11.707-11.708,27.282-18.155,43.854-18.155c2.261,0,4.546,0.124,6.791,0.369c4.519,0.489,9.019-1.09,12.233-4.305l145.629-145.628  l46.956,46.956L603.216,1445.74z M882.307,1436.479l-0.412,0.412c2.177-35.665,1.804-44.352-4.82-50.976l-96.405-96.404  c-0.002-0.002-0.003-0.004-0.005-0.006l-68.169-68.169c-0.003-0.003-0.007-0.006-0.01-0.009l-96.4-96.4  c-5.049-5.051-11.984-6.009-23.017-6.009c-7.892,0-17.91,0.563-27.955,1.186l0.399-0.4c10.731-4.451,61.373-16,79.597-16.815  l143.601,143.6l37.936,37.936c0.002,0.002,0.004,0.003,0.006,0.005l72.526,72.526C898.57,1372.947,887.16,1424.975,882.307,1436.479  z M837.252,1252.604l-33.821-33.821l-22.834-22.834l143.534-143.534l56.656,56.656L837.252,1252.604z M1122.926,1381.915  c-6.624,6.624-6.997,15.31-4.819,50.976l-0.412-0.412c-4.854-11.503-16.265-63.531-16.872-79.521l141.192-141.193l40.409-40.408  c0.002-0.002,0.004-0.005,0.007-0.007l72.459-72.459c18.224,0.815,68.867,12.365,79.598,16.815l0.4,0.4  c-10.045-0.623-20.063-1.186-27.955-1.186c-11.032,0-17.968,0.957-23.018,6.008L1122.926,1381.915z M1506.618,1504.618  c-11.72,11.72-27.299,18.173-43.866,18.173h-0.006c-16.574-0.001-32.154-6.455-43.871-18.172  c-13.357-13.356-19.84-31.815-17.786-50.644c0.493-4.52-1.09-9.019-4.305-12.233l-145.629-145.628l46.956-46.956l145.629,145.628  c3.216,3.215,7.716,4.799,12.233,4.305c2.245-0.245,4.53-0.369,6.79-0.369c16.572,0,32.146,6.447,43.854,18.155  C1530.809,1441.066,1530.809,1480.428,1506.618,1504.618z M1457.163,1407.164c-12.821,0-24.875,4.993-33.941,14.059  c-18.714,18.714-18.714,49.167,0,67.883c9.066,9.065,21.12,14.058,33.942,14.058c12.821,0,24.875-4.993,33.941-14.059  c18.714-18.717,18.713-49.168-0.001-67.883C1482.038,1412.157,1469.983,1407.164,1457.163,1407.164z M1469.891,1467.893  c-3.398,3.399-7.919,5.271-12.727,5.271c-4.81,0-9.328-1.873-12.728-5.271c-7.018-7.019-7.018-18.439-0.002-25.458  c3.401-3.399,7.92-5.271,12.729-5.271s9.329,1.873,12.728,5.271C1476.908,1449.454,1476.908,1460.874,1469.891,1467.893z"></path></svg>