<svg height='100px' width='100px'  fill="#FFFFFF" xmlns="http://www.w3.org/2000/svg" viewBox="0 0 64 64" x="0px" y="0px"><g><rect x="56" y="4" width="2" height="2"></rect><rect x="58" y="2" width="2" height="2"></rect><rect x="58" y="6" width="2" height="2"></rect><rect x="60" y="4" width="2" height="2"></rect><rect x="2" y="58" width="2" height="2"></rect><rect x="4" y="56" width="2" height="2"></rect><rect x="4" y="60" width="2" height="2"></rect><rect x="6" y="58" width="2" height="2"></rect><rect x="19" y="12" width="2" height="2"></rect><rect x="21" y="10" width="2" height="2"></rect><rect x="21" y="14" width="2" height="2"></rect><rect x="23" y="12" width="2" height="2"></rect><path d="M5,23a3,3,0,1,0-3-3A3,3,0,0,0,5,23Zm0-4a1,1,0,1,1-1,1A1,1,0,0,1,5,19Z"></path><rect x="39" y="29" width="2" height="2"></rect><rect x="41" y="27" width="2" height="2"></rect><rect x="41" y="31" width="2" height="2"></rect><rect x="43" y="29" width="2" height="2"></rect><path d="M26.553,22.9l3.629,1.814,1.869,5.607a1,1,0,0,0,1.9,0l1.869-5.607L39.447,22.9a1,1,0,0,0,0-1.79l-3.629-1.814-1.869-5.607a1,1,0,0,0-1.9,0l-1.869,5.607-3.629,1.814a1,1,0,0,0,0,1.79Zm4.894-2a1,1,0,0,0,.5-.579L33,17.162l1.051,3.154a1,1,0,0,0,.5.579L36.764,22l-2.211,1.105a1,1,0,0,0-.5.579L33,26.838l-1.051-3.154a1,1,0,0,0-.5-.579L29.236,22Z"></path><path d="M14,35a1,1,0,0,0,.553.9l3.629,1.814,1.869,5.607a1,1,0,0,0,1.9,0l1.869-5.607L27.447,35.9a1,1,0,0,0,0-1.79l-3.629-1.814-1.869-5.607a1,1,0,0,0-1.9,0l-1.869,5.607L14.553,34.1A1,1,0,0,0,14,35Zm5.447-1.1a1,1,0,0,0,.5-.579L21,30.162l1.051,3.154a1,1,0,0,0,.5.579L24.764,35l-2.211,1.1a1,1,0,0,0-.5.579L21,39.838l-1.051-3.154a1,1,0,0,0-.5-.579L17.236,35Z"></path><rect x="11" y="24" width="2" height="2"></rect><rect x="13" y="22" width="2" height="2"></rect><rect x="13" y="26" width="2" height="2"></rect><rect x="15" y="24" width="2" height="2"></rect><rect x="54" y="56" width="2" height="2"></rect><rect x="56" y="54" width="2" height="2"></rect><rect x="56" y="58" width="2" height="2"></rect><rect x="58" y="56" width="2" height="2"></rect><path d="M31,39a3,3,0,1,0,3-3A3,3,0,0,0,31,39Zm4,0a1,1,0,1,1-1-1A1,1,0,0,1,35,39Z"></path><path d="M36,12a3,3,0,1,0-3-3A3,3,0,0,0,36,12Zm0-4a1,1,0,1,1-1,1A1,1,0,0,1,36,8Z"></path><path d="M45.432,5.1A1,1,0,0,0,44.25,6.661C48.065,11,50,16.5,50,23A25.028,25.028,0,0,1,25,48,23.832,23.832,0,0,1,4.824,37.433a1,1,0,0,0-1.8.763A29.288,29.288,0,0,0,32,62,30.034,30.034,0,0,0,62,32,29.427,29.427,0,0,0,45.432,5.1ZM32,60A27.249,27.249,0,0,1,6.28,42.338,25.726,25.726,0,0,0,25,50,27.03,27.03,0,0,0,52,23,27.44,27.44,0,0,0,48.541,9.242,27.644,27.644,0,0,1,60,32,28.032,28.032,0,0,1,32,60Z"></path></g></svg>