<svg height='100px' width='100px'  fill="#FFFFFF" xmlns="http://www.w3.org/2000/svg" xmlns:xlink="http://www.w3.org/1999/xlink" version="1.1" x="0px" y="0px" viewBox="0 0 64 64" enable-background="new 0 0 64 64" xml:space="preserve"><g><path d="M32,6C17.664,6,6,17.664,6,32c0,14.337,11.664,26,26,26s26-11.663,26-26C58,17.664,46.337,6,32,6z M44.728,41.899   c0.781,0.781,0.781,2.047,0,2.828c-0.391,0.391-0.902,0.586-1.414,0.586s-1.023-0.195-1.414-0.586L32,34.828l-9.899,9.899   c-0.39,0.391-0.902,0.586-1.414,0.586s-1.024-0.195-1.414-0.586c-0.781-0.781-0.781-2.047,0-2.828L29.172,32l-9.899-9.899   c-0.781-0.781-0.781-2.047,0-2.828c0.78-0.781,2.048-0.781,2.828,0L32,29.172l9.9-9.899c0.781-0.781,2.047-0.781,2.828,0   c0.781,0.781,0.781,2.047,0,2.828L34.828,32L44.728,41.899z"></path></g></svg>