<svg height='100px' width='100px'  fill="#FFFFFF" xmlns="http://www.w3.org/2000/svg" data-name="Layer 1" viewBox="0 0 100 100" x="0px" y="0px"><title>escudoespadas</title><path d="M73.96542,38.71141A79.96825,79.96825,0,0,1,49.98178,32.764a79.64452,79.64452,0,0,1-23.94744,5.94744c-.10786,6.12568-.28568,17.35988-.28568,24.53778,0,15.71479,18.48119,26.391,24.23478,29.32812C55.7455,89.6478,74.25115,78.996,74.25115,63.24919,74.25115,55.96552,74.07333,44.7916,73.96542,38.71141ZM50.29934,76.47059C50.2391,81.09507,50.1543,85.71954,50,90.344c-.1543-4.62448-.2391-9.24895-.29934-13.87343-.092-4.62442-.065-9.24889-.10348-13.87337-.02794-4.62442.03445-9.24889.05952-13.87337.07877-4.62447.15338-9.24889.3433-13.87337.18992,4.62448.26453,9.2489.3433,13.87337.02507,4.62448.08746,9.249.05952,13.87337C50.36438,67.2217,50.39135,71.84617,50.29934,76.47059Z"></path><path d="M79.05405,33.72808c-15.70479,0-29.07494-6.674-29.07494-6.674a72.48222,72.48222,0,0,1-29.03316,6.674s-.37509,18.892-.37509,29.52535c0,22.47977,29.40825,35.08861,29.40825,35.08861s29.45-12.60884,29.45-35.08861C79.42914,52.62,79.05405,33.72808,79.05405,33.72808ZM49.98068,93.52933c-5.91284-2.97034-25.06294-13.861-25.06294-30.2759,0-7.467.18852-19.16466.298-25.3264a78.454,78.454,0,0,0,24.76584-6.0948A78.7904,78.7904,0,0,0,74.7843,37.92707c.10944,6.16146.298,17.85854.298,25.32636C75.08226,79.67076,55.895,90.56294,49.98068,93.52933Z"></path><path d="M25.22209,31.66331c-.10066-1.05767.99976-2.54675,1.84487-3.32244,2.30457-2.11093,3.72744-2.21529,5.54853-3.42685,1.81775-1.21653,2.46007-2.49038,5.294-3.80829,1.04059-.4826,2.83806-.92731,3.77607-.42838q-.294-1.08956-.57769-2.18242a34.6285,34.6285,0,0,0-9.87615,4.34536,34.62913,34.62913,0,0,0-7.80315,7.45193Q24.32882,30.97361,25.22209,31.66331Z"></path><path d="M20.57666,6.8727a2.54182,2.54182,0,1,0-3.5252-.70341A2.53316,2.53316,0,0,0,20.57666,6.8727Z"></path><path d="M21.09994,7.65693a3.46882,3.46882,0,0,1-1.31965.5276l9.30024,15.06072c.54041-.42231,1.084-.8284,1.62568-1.18771.54124-.36337,1.12639-.71033,1.72525-1.04807L22.09246,6.63919A3.46932,3.46932,0,0,1,21.09994,7.65693Z"></path><path d="M74.77791,31.66331c.10066-1.05767-.99976-2.54675-1.84487-3.32244-2.30457-2.11093-3.72744-2.21529-5.54853-3.42685-1.81775-1.21653-2.46007-2.49038-5.294-3.80829-1.04059-.4826-2.83806-.92731-3.77607-.42838q.294-1.08956.57769-2.18242a34.6285,34.6285,0,0,1,9.87615,4.34536,34.62913,34.62913,0,0,1,7.80315,7.45193Q75.67118,30.97361,74.77791,31.66331Z"></path><path d="M79.42334,6.8727a2.54182,2.54182,0,1,1,3.5252-.70341A2.53316,2.53316,0,0,1,79.42334,6.8727Z"></path><path d="M78.90006,7.65693a3.46882,3.46882,0,0,0,1.31965.5276L70.91947,23.24525c-.54041-.42231-1.084-.8284-1.62568-1.18771-.54124-.36337-1.12639-.71033-1.72525-1.04807l10.339-14.37028A3.46932,3.46932,0,0,0,78.90006,7.65693Z"></path><path d="M67.20387,31.4635c1.426-2.07168,2.42046-3.51676,2.8123-4.0862-.38349-.2117-.75588-.39184-1.13533-.57437-.51138-.24594-1.03838-.5029-1.599-.84126l-3.26637,4.80668C65.04009,31.01552,66.1038,31.24947,67.20387,31.4635Z"></path><path d="M26.3921,81.872c-.82455,1.2915-1.37455,2.16049-1.56954,2.4827C22.79318,87.396,18.7608,97.75657,18.7608,97.75657l.00568.01589.01691-.00082s8.01931-7.70005,10.04875-10.74137c.15-.20445.4701-.65729.92719-1.30985A45.36134,45.36134,0,0,1,26.3921,81.872Z"></path><path d="M63.08884,30.53947,66.45949,25.413c-.52952-.389-.96977-.77758-1.39365-1.1558-.31413-.28037-.62333-.555-.966-.82791-.49.7576-1.95906,3.0288-4.05491,6.27011C61.00517,29.98591,62.02383,30.2684,63.08884,30.53947Z"></path><path d="M39.95193,29.69458c-2.09421-3.23878-3.56195-5.508-4.05176-6.26525-.34268.27291-.65188.54754-.966.82791-.42388.37822-.86413.76684-1.39365,1.1558l3.36866,5.12341C37.97411,30.26471,38.99229,29.98166,39.95193,29.69458Z"></path><path d="M75.17744,84.3547c-.19533-.32276-.74684-1.19407-1.57379-2.48927a45.38091,45.38091,0,0,1-3.369,3.84636c.4603.65722.78265,1.11314.93321,1.31848,2.02944,3.04132,10.04875,10.74137,10.04875,10.74137l.01691.00082.00568-.01589S77.20682,87.396,75.17744,84.3547Z"></path><path d="M35.98281,30.76582l-3.26466-4.80415c-.56061.33836-1.08761.59532-1.599.84126-.37945.18253-.75184.36267-1.13533.57437.39177.56937,1.38592,2.014,2.81141,4.085C33.89531,31.24783,34.95874,31.0134,35.98281,30.76582Z"></path></svg>