<svg height='100px' width='100px'  fill="#FFFFFF" xmlns="http://www.w3.org/2000/svg" xmlns:xlink="http://www.w3.org/1999/xlink" version="1.1" x="0px" y="0px" viewBox="0 0 48 48" style="enable-background:new 0 0 48 48;" xml:space="preserve"><g><path d="M12.93,29.58l-2.27,13.24c-0.06,0.38,0.09,0.75,0.4,0.98c0.31,0.22,0.72,0.25,1.05,0.08L24,37.63l11.89,6.25   c0.15,0.08,0.31,0.11,0.46,0.11c0.21,0,0.41-0.06,0.59-0.19c0.31-0.22,0.46-0.6,0.4-0.98l-2.27-13.24l9.62-9.38   c0.27-0.27,0.37-0.66,0.25-1.03c-0.12-0.36-0.43-0.63-0.81-0.68l-13.3-1.93L24.9,4.52c-0.34-0.68-1.46-0.68-1.79,0l-5.95,12.05   L3.86,18.5c-0.38,0.05-0.69,0.32-0.81,0.68s-0.02,0.76,0.25,1.03L12.93,29.58z M17.96,18.47c0.33-0.05,0.61-0.25,0.75-0.55L24,7.22   l5.28,10.7c0.15,0.3,0.43,0.5,0.75,0.55l11.81,1.72l-8.55,8.33c-0.24,0.23-0.34,0.56-0.29,0.89l2.02,11.76l-10.56-5.55   c-0.29-0.15-0.64-0.15-0.93,0l-10.56,5.55l2.02-11.76c0.06-0.32-0.05-0.66-0.29-0.89l-8.55-8.33L17.96,18.47z"></path></g></svg>