<svg height='100px' width='100px'  fill="#FFFFFF" xmlns="http://www.w3.org/2000/svg" viewBox="0 0 64 64" x="0px" y="0px"><g><path d="M62.476,32a2,2,0,0,0-.688-1.51l-2.74-2.381,1.961-3.051a2,2,0,0,0-.85-2.9l-3.3-1.51,1.017-3.483a2,2,0,0,0-1.635-2.54l-3.592-.517,0-3.629A2,2,0,0,0,50.366,8.5l-3.593.512L45.751,5.53A2,2,0,0,0,43,4.273L39.7,5.778l-1.968-3.05a2,2,0,0,0-2.99-.428L32,4.677,29.258,2.3a2,2,0,0,0-2.991.427L24.3,5.778,21,4.274A2,2,0,0,0,18.25,5.53L17.228,9.011,13.635,8.5a2,2,0,0,0-2.282,1.98l0,3.628-3.591.517a2,2,0,0,0-1.635,2.54l1.017,3.483-3.3,1.51a2,2,0,0,0-.85,2.9l1.961,3.052L2.213,30.49a2,2,0,0,0,0,3.02l2.74,2.381L2.991,38.942a2,2,0,0,0,.85,2.9l3.3,1.51L6.123,46.835a2,2,0,0,0,1.635,2.54l3.592.517,0,3.629A2,2,0,0,0,13.634,55.5l3.593-.512,1.022,3.482A2,2,0,0,0,21,59.727l3.3-1.5,1.968,3.05a2,2,0,0,0,2.99.428L32,59.323,34.742,61.7a2,2,0,0,0,1.31.489,1.924,1.924,0,0,0,.283-.02,2,2,0,0,0,1.4-.9l1.967-3.05,3.3,1.5A2,2,0,0,0,45.75,58.47l1.022-3.481,3.593.512a2,2,0,0,0,2.282-1.98l0-3.628,3.591-.517a2,2,0,0,0,1.635-2.54l-1.017-3.483,3.3-1.51a2,2,0,0,0,.85-2.9l-1.961-3.052,2.739-2.381A2,2,0,0,0,62.476,32Zm-2,0h0l-2.739,2.381a2.011,2.011,0,0,0-.371,2.591l1.962,3.053-3.3,1.509a2.011,2.011,0,0,0-1.088,2.379L55.956,47.4l-3.591.517a2.01,2.01,0,0,0-1.716,1.978l0,3.629-3.592-.512a2.007,2.007,0,0,0-2.2,1.417l-1.022,3.48-3.3-1.5a2.011,2.011,0,0,0-2.51.736l-1.968,3.05L33.31,57.812a2.012,2.012,0,0,0-2.62,0l-2.742,2.376-1.968-3.05a2.012,2.012,0,0,0-2.51-.737l-3.3,1.5-1.021-3.482a2.01,2.01,0,0,0-2.2-1.416l-3.593.512,0-3.63a2.008,2.008,0,0,0-1.716-1.977L8.043,47.4,9.06,43.913a2.011,2.011,0,0,0-1.088-2.38l-3.3-1.509,1.962-3.052a2.012,2.012,0,0,0-.37-2.591L3.525,32l2.739-2.381a2.011,2.011,0,0,0,.371-2.591L4.673,23.975l3.3-1.509a2.011,2.011,0,0,0,1.088-2.379L8.044,16.6l3.591-.517a2.01,2.01,0,0,0,1.716-1.978l0-3.629,3.592.512a2.006,2.006,0,0,0,2.2-1.417l1.022-3.48,3.3,1.5a2.01,2.01,0,0,0,2.51-.736l1.968-3.05L30.69,6.188a2.011,2.011,0,0,0,2.62,0l2.742-2.376,1.968,3.05a2.013,2.013,0,0,0,2.51.737l3.3-1.5,1.021,3.482a2.005,2.005,0,0,0,2.2,1.416l3.593-.512,0,3.63a2.008,2.008,0,0,0,1.716,1.977l3.591.517L54.94,20.087a2.011,2.011,0,0,0,1.088,2.38l3.3,1.509-1.962,3.052a2.012,2.012,0,0,0,.37,2.591L60.477,32Z"></path><rect x="56" y="4" width="2" height="2"></rect><rect x="58" y="2" width="2" height="2"></rect><rect x="58" y="6" width="2" height="2"></rect><rect x="60" y="4" width="2" height="2"></rect><rect x="54" y="56" width="2" height="2"></rect><rect x="56" y="54" width="2" height="2"></rect><rect x="56" y="58" width="2" height="2"></rect><rect x="58" y="56" width="2" height="2"></rect><rect x="4" y="55" width="2" height="2"></rect><rect x="6" y="53" width="2" height="2"></rect><rect x="6" y="57" width="2" height="2"></rect><rect x="8" y="55" width="2" height="2"></rect><rect x="4" y="6" width="2" height="2"></rect><rect x="6" y="4" width="2" height="2"></rect><rect x="6" y="8" width="2" height="2"></rect><rect x="8" y="6" width="2" height="2"></rect><path d="M32,12A20,20,0,1,0,52,32,20.023,20.023,0,0,0,32,12Zm.678,2.034a17.989,17.989,0,0,1,4.628.766,6.312,6.312,0,0,0-1.433,1.083A6.553,6.553,0,0,0,34,20.976a4.523,4.523,0,0,1-5.03,5.029A6.479,6.479,0,0,0,22,32.976a4.522,4.522,0,0,1-5.019,5.03,12.137,12.137,0,0,0-1.865.164,17.889,17.889,0,0,1-.671-2.257,5.956,5.956,0,0,0,3.676-1.786A6.559,6.559,0,0,0,20,29.034,4.523,4.523,0,0,1,25.024,24,6.479,6.479,0,0,0,32,17.033,5.327,5.327,0,0,1,32.678,14.034Zm-2.248.046a8.77,8.77,0,0,0-.435,2.9,4.522,4.522,0,0,1-5.029,5.03A6.479,6.479,0,0,0,18,28.976,4.652,4.652,0,0,1,16.7,32.713a3.934,3.934,0,0,1-2.595,1.224A18.221,18.221,0,0,1,14,32,18.016,18.016,0,0,1,30.43,14.08Zm-14.5,25.986c.359-.037.728-.049,1.107-.061A6.479,6.479,0,0,0,24,33.034,4.523,4.523,0,0,1,29.024,28a6.479,6.479,0,0,0,6.971-6.97A4.65,4.65,0,0,1,37.287,17.3a4.159,4.159,0,0,1,2.995-1.262,18.107,18.107,0,0,1,8.289,8.94c-.2.01-.4.021-.608.028A6.482,6.482,0,0,0,41,31.976a4.523,4.523,0,0,1-5.03,5.029A6.479,6.479,0,0,0,29,43.976,4.652,4.652,0,0,1,27.7,47.713a3.887,3.887,0,0,1-2,1.127A18.079,18.079,0,0,1,15.931,40.066Zm12.581,9.588a6.95,6.95,0,0,0,.605-.527A6.559,6.559,0,0,0,31,44.034,4.523,4.523,0,0,1,36.024,39,6.479,6.479,0,0,0,43,32.034,4.526,4.526,0,0,1,48.025,27c.4-.013.814-.029,1.236-.072a17.916,17.916,0,0,1,.5,2.3,5.836,5.836,0,0,0-2.892,1.651A6.553,6.553,0,0,0,45,35.976a4.523,4.523,0,0,1-5.03,5.029,6.48,6.48,0,0,0-6.971,6.969,7.962,7.962,0,0,1-.226,1.987c-.257.011-.509.039-.769.039A17.977,17.977,0,0,1,28.512,49.654Zm6.345.1a13.371,13.371,0,0,0,.137-1.717A4.524,4.524,0,0,1,40.024,43,6.479,6.479,0,0,0,47,36.034a4.652,4.652,0,0,1,1.3-3.74,3.949,3.949,0,0,1,1.672-1.046c.01.251.038.5.038.752A18.013,18.013,0,0,1,34.857,49.751Z"></path></g></svg>