<svg height='100px' width='100px'  fill="#FFFFFF" xmlns:dc="http://purl.org/dc/elements/1.1/" xmlns:cc="http://creativecommons.org/ns#" xmlns:rdf="http://www.w3.org/1999/02/22-rdf-syntax-ns#" xmlns:svg="http://www.w3.org/2000/svg" xmlns="http://www.w3.org/2000/svg" xmlns:sodipodi="http://sodipodi.sourceforge.net/DTD/sodipodi-0.dtd" xmlns:inkscape="http://www.inkscape.org/namespaces/inkscape" version="1.1" x="0px" y="0px" viewBox="0 0 100 100"><g transform="translate(0,-952.36218)"><path style="text-indent:0;text-transform:none;direction:ltr;block-progression:tb;baseline-shift:baseline;color:#000000;enable-background:accumulate;" d="m 35.419876,977.36194 c -5.950276,0 -10.835894,4.84161 -10.835894,10.77275 0,5.93123 4.885618,10.77283 10.835894,10.77283 5.984291,0 10.877952,-4.8417 10.877952,-10.77283 0,-5.93114 -4.893661,-10.77275 -10.877952,-10.77275 z" fill="#FFFFFF" fill-opacity="1" fill-rule="evenodd" stroke="none" marker="none" visibility="visible" display="inline" overflow="visible"></path><path style="text-indent:0;text-transform:none;direction:ltr;block-progression:tb;baseline-shift:baseline;color:#000000;enable-background:accumulate;" d="m 35.426466,1009.7765 c 5.169437,0 10.337599,0.757 14.612847,2.2445 a 2.0001997,2.0001997 0 0 0 0.0011,0 c 3.341444,1.1602 6.122763,2.7538 7.98796,4.6384 1.865161,1.8846 2.854559,3.9749 2.854559,6.5662 l 0,4.1368 -50.882987,0 0,-4.1368 c 0,-2.97 1.288276,-5.3104 3.698327,-7.3668 2.410016,-2.0563 5.967142,-3.6901 10.084039,-4.7281 3.602232,-0.9082 7.623531,-1.3574 11.644157,-1.3542 z" fill="#FFFFFF" fill-opacity="1" fill-rule="evenodd" stroke="none" marker="none" visibility="visible" display="inline" overflow="visible"></path><path style="text-indent:0;text-transform:none;direction:ltr;block-progression:tb;baseline-shift:baseline;color:#000000;enable-background:accumulate;" d="m 65.219052,1009.7987 c 3.95628,0.047 7.890165,0.5319 11.402823,1.4572 4.01443,1.0574 7.46437,2.6866 9.79834,4.7192 2.33398,2.0326 3.57984,4.3361 3.57984,7.2505 l 0,4.1368 -25.117617,0 0,-4.1368 c 0,-3.6749 -1.556079,-6.8997 -4.010563,-9.3798 -1.294157,-1.3076 -2.829011,-2.4299 -4.538763,-3.3916 2.859377,-0.4685 5.87707,-0.6914 8.88594,-0.6555 z" fill="#FFFFFF" fill-opacity="1" fill-rule="evenodd" stroke="none" marker="none" visibility="visible" display="inline" overflow="visible"></path><path style="text-indent:0;text-transform:none;direction:ltr;block-progression:tb;baseline-shift:baseline;color:#000000;enable-background:accumulate;" d="m 64.580194,977.36194 c -5.950311,0 -10.834795,4.84161 -10.834795,10.77275 0,5.93113 4.884484,10.77283 10.834795,10.77283 5.95024,0 10.834761,-4.8416 10.834761,-10.77283 0,-5.93114 -4.884485,-10.77275 -10.834761,-10.77275 z" fill="#FFFFFF" fill-opacity="1" fill-rule="evenodd" stroke="none" marker="none" visibility="visible" display="inline" overflow="visible"></path></g></svg>